<?xml version="1.0" standalone="no"?>
<!DOCTYPE svg PUBLIC "-//W3C//DTD SVG 20010904//EN"
 "http://www.w3.org/TR/2001/REC-SVG-20010904/DTD/svg10.dtd">
<svg version="1.0" xmlns="http://www.w3.org/2000/svg"
 width="514.000000pt" height="514.000000pt" viewBox="0 0 514.000000 514.000000"
 preserveAspectRatio="xMidYMid meet">
<metadata>
Created by potrace 1.14, written by Peter Selinger 2001-2017
</metadata>
<g transform="translate(0.000000,514.000000) scale(0.100000,-0.100000)"
fill="#000000" stroke="none">
<path d="M2420 4677 c-3 -3 -34 -7 -70 -10 -163 -14 -397 -78 -575 -156 -103
-46 -309 -159 -350 -193 -5 -5 -44 -34 -85 -66 -363 -276 -624 -666 -745
-1117 -60 -221 -70 -297 -70 -510 0 -152 8 -243 26 -325 6 -25 13 -56 15 -70
7 -37 41 -149 86 -283 114 -341 408 -735 713 -955 76 -55 145 -102 149 -102 3
0 29 -15 58 -33 53 -34 220 -116 268 -132 3 -1 16 -6 30 -12 104 -44 370 -108
498 -120 151 -15 467 -8 576 13 244 46 531 149 691 249 22 13 56 33 75 44 111
61 440 343 440 378 0 6 -8 18 -18 25 -16 11 -89 74 -188 163 -136 122 -176
148 -283 179 -69 20 -177 21 -211 1 -14 -8 -41 -21 -60 -30 -19 -8 -53 -24
-75 -36 -246 -131 -318 -159 -485 -194 -125 -26 -339 -23 -486 5 -363 71 -646
280 -868 642 -26 43 -85 196 -106 273 -50 190 -52 442 -3 630 8 33 16 65 17
70 1 6 4 15 7 20 4 6 12 28 19 50 44 139 163 320 300 455 249 248 568 375 915
365 253 -7 388 -49 692 -213 39 -22 79 -42 90 -46 10 -3 29 -13 42 -20 24 -14
136 -15 206 -1 45 8 165 71 206 108 20 18 62 55 93 82 32 28 85 76 119 107 34
32 65 58 70 58 4 0 7 6 7 13 0 14 -152 165 -240 239 -146 121 -398 263 -585
331 -155 56 -203 68 -425 112 -39 8 -473 18 -480 12z"/>
</g>
</svg>
